<svg id="Capa_1" enable-background="new 0 0 512 512" height="512" viewBox="0 0 512 512" width="512" xmlns="http://www.w3.org/2000/svg"><g><g><path d="m349.45 118.762h-186.9c-8.324 0-15.072 6.748-15.072 15.072v16.702c0 8.324 6.748 15.072 15.072 15.072h186.9c8.324 0 15.072-6.748 15.072-15.072v-16.702c0-8.324-6.748-15.072-15.072-15.072z" fill="#f6e2bf"/><g><path d="m413.865 413.815-25.819-85.159c-7.112-23.457-26.921-40.846-51.102-44.858l-23.442-3.889h-174.98l-23.441 3.889c-24.181 4.012-43.99 21.4-51.102 44.858l-25.819 85.159c-3.848 12.691-.256 26.467 9.298 35.663l32.437 31.223h292.235l32.438-31.223c9.553-9.196 13.145-22.972 9.297-35.663z" fill="#c9e0fd"/><path d="m473.841 413.815-25.819-85.159c-7.112-23.457-26.921-40.846-51.102-44.858l-23.442-3.889h-63.224l23.442 3.889c24.181 4.012 43.99 21.4 51.102 44.858l25.819 85.159c3.848 12.691.256 26.467-9.298 35.663l-32.438 31.223h63.224l32.438-31.223c9.554-9.196 13.146-22.972 9.298-35.663z" fill="#bcd6f9"/><g><path d="m373.477 279.909-50.907-8.446c-10.099-1.676-17.797-9.953-18.736-20.147l-3.695-40.11h-88.278l-3.695 40.11c-.939 10.194-8.637 18.471-18.736 20.147l-50.907 8.447h234.954z" fill="#faefdb"/></g><path d="m328.186 442.746v-147.665c0-13.154-10.663-23.817-23.817-23.817h-156.403c-13.154 0-23.817 10.663-23.817 23.817v147.665z" fill="#f7f4f7"/><g><g><g><g><g><g><g><path d="m263.831 225.739c16.846-14.505 26.17-35.863 26.646-58.052l.012-144.982c-3.605-1.575-7.345-2.919-11.2-4.016v-.001c-7.079-2.033-14.834-3.261-23.289-3.355-43.531.486-83.275 33.123-83.275 80.826l.023 69.449c.47 21.874 9.661 42.928 26.267 57.226 9.802 8.44 19.858 15.348 31.138 19.749.017.006.033.013.05.019 3.342 1.301 7.092 1.068 10.275-.585 9.093-4.723 16.854-10.683 23.353-16.278z" fill="#faefdb"/><g><path d="m287.586 21.497-.016 144.11c-.47 21.874-9.662 42.928-26.268 57.226-8.263 7.115-18.599 14.829-31.15 19.749 8.048 3.168 16.601 5.015 25.847 5.118 24.824-.277 43.617-13.356 56.985-24.867 16.606-14.299 25.798-35.352 26.268-57.226l.023-69.449c0-34.827-21.413-62.71-51.689-74.661z" fill="#f6e2bf"/></g><path d="m279.283 78.254v-.014c4.668-1.096 8.053-2.273 11.201-3.275l.005-64.067-2.909-3.398-65.36.002c-7.11 0-13.634 3.939-16.946 10.23v.205c0 6.937-5.56 11.456-12.414 10.388-17.597-2.744-32.762 10.79-32.762 27.865v62.789c.8-.131 1.616-.217 2.453-.217h10.624c8.007 0 14.916-6.104 15.384-14.097.055-.928.019-.459.029-16.024 0-8.924 7.235-16.159 16.159-16.159h3.48c15.433 0 22.961 8.368 48.572 8.368 7.579-.001 15.124-.874 22.484-2.596z" fill="#89808c"/></g></g></g></g></g></g></g><g><g><g><g><g><g><g><g><path d="m351.882 52.846c-.009-25.046-20.316-45.347-45.362-45.346h-18.933l-.007 68.4c5.786-1.853 9.968-3.418 17.79-3.418h1.884c8.924 0 16.159 7.235 16.159 16.159.01 16.057-.022 15.15.028 16.017.464 7.996 7.375 14.104 15.384 14.104h10.624c.835 0 1.654.068 2.452.199z" fill="#756e78"/></g></g></g></g></g></g></g></g></g><g><g><g><g><g><g><g><g><path d="m364.159 271.264h-63.224c13.154 0 23.817 10.663 23.817 23.817v147.665h63.224v-147.665c0-13.154-10.664-23.817-23.817-23.817z" fill="#edeaed"/><path d="m411.245 441.093h-310.24c-4.444 0-8.046 3.602-8.046 8.046 0 16.359 13.261 29.62 29.62 29.62h267.092c16.359 0 29.62-13.261 29.62-29.62 0-4.443-3.602-8.046-8.046-8.046z" fill="#c1bcc4"/><path d="m411.245 441.093h-55.178v37.667h33.604c16.359 0 29.62-13.262 29.62-29.62 0-4.444-3.602-8.047-8.046-8.047z" fill="#b2aab5"/></g></g></g></g></g></g><circle cx="256.125" cy="357.005" fill="#bcd6f9" r="26.826"/><path d="m7.921 487.038c0 9.644 7.818 17.462 17.462 17.462h406.584c5.738-.005 10.388-4.658 10.388-10.398v-20.458l-1.499-4.068h-415.474c-9.643.001-17.461 7.819-17.461 17.462z" fill="#b58c8c"/><path d="m486.618 469.577h-45.763v24.526c0 5.742-4.655 10.398-10.398 10.398h56.16c9.644 0 17.462-7.818 17.462-17.462 0-9.644-7.817-17.462-17.461-17.462z" fill="#a87f7f"/></g></g></g><g><g><path d="m256.125 391.331c18.927 0 34.325-15.398 34.325-34.326 0-18.927-15.398-34.325-34.325-34.325s-34.325 15.398-34.325 34.325c0 18.928 15.398 34.326 34.325 34.326zm0-53.651c10.656 0 19.325 8.669 19.325 19.325s-8.669 19.326-19.325 19.326-19.325-8.67-19.325-19.326 8.669-19.325 19.325-19.325z"/><path d="m486.618 462.077h-24.224l7.475-7.195c11.644-11.207 15.964-27.776 11.275-43.242l-25.82-85.159c-7.998-26.38-29.858-45.569-57.052-50.08l-10.374-1.722c-5.748-6.678-14.258-10.914-23.74-10.914h-41.628c-6.094-1.608-10.519-6.802-11.102-13.137l-1.403-15.229c18.608-13.945 33.583-34.99 36.396-62.291h3.154c12.446 0 22.571-10.126 22.571-22.572v-16.702c0-8.88-5.154-16.578-12.628-20.261-.003-3.6-.005-9.641-.005-19.774 0-4.143-3.357-7.5-7.5-7.5s-7.5 3.357-7.5 7.5c0 8.206.001 13.736.003 17.464h-5.564c-4.156 0-7.914-3.081-7.914-7.591v-15.03c0-13.046-10.613-23.659-23.659-23.659-1.198.085-9.077-.565-19.137 2.848-1.339.348-13.752 5.521-31.319 5.521-17.507 0-30.025-5.185-31.32-5.521-10.575-3.588-18.701-2.719-20.731-2.848-13.046 0-23.659 10.613-23.659 23.659v15.03c0 4.43-3.819 7.591-7.917 7.591h-5.572v-55.074c0-12.347 10.917-22.509 24.105-20.455 10.523 1.642 19.882-5.139 20.967-15.757 2.162-3.101 5.704-4.975 9.55-4.976l84.3-.002c20.916 0 37.862 16.92 37.862 37.846 0 2.606.002 3.91.004 4.562.017 6.43 4.915 8.129 7.503 8.129 4.143 0 7.5-3.357 7.5-7.5 0-.049 0-.097-.001-.146-.002-.203-.006-1.098-.006-5.045 0-29.208-23.649-52.848-52.862-52.846l-84.301.002c-9.923.001-18.959 5.456-23.582 14.236-.995 1.892-.85 3.587-.862 3.698 0 .744-.156 1.765-.898 2.401-.651.557-1.662.763-2.861.576-21.986-3.431-41.417 13.45-41.417 35.275v57.387c-7.469 3.684-12.619 11.38-12.619 20.256v16.702c0 12.446 10.125 22.572 22.571 22.572h3.161c1.679 16.038 7.719 31.138 17.674 44.041 5.268 6.827 11.569 12.986 18.707 18.329l-1.396 15.15c-.583 6.335-5.007 11.529-11.101 13.137h-41.63c-9.482 0-17.992 4.236-23.74 10.915l-10.373 1.721c-27.192 4.511-49.054 23.7-57.053 50.08l-25.821 85.163c-4.688 15.466-.368 32.035 11.275 43.242l7.475 7.195h-24.472c-13.764 0-24.962 11.197-24.962 24.961s11.198 24.962 24.962 24.962h461.235c13.764 0 24.961-11.198 24.961-24.962s-11.197-24.961-24.961-24.961zm-139.728-335.815h2.685c4.155 0 7.571 3.377 7.571 7.571v16.702c0 4.176-3.396 7.572-7.57 7.572h-2.697zm-184.215 31.845c-4.175 0-7.571-3.396-7.571-7.572v-16.702c0-4.189 3.411-7.571 7.571-7.571h2.685l.01 31.846h-2.695zm233.142 133.09c21.521 3.571 38.822 18.758 45.151 39.635l25.82 85.159c3.046 10.045.24 20.806-7.322 28.084l-18.702 18.002h-16.289c1.52-4.093 2.315-8.462 2.315-12.938 0-8.572-6.975-15.546-15.547-15.546h-15.769v-138.512c0-1.349-.086-2.678-.252-3.982zm15.427 157.397c.302 0 .547.245.547.546 0 4.694-1.466 9.191-4.175 12.938h-302.983c-2.709-3.747-4.174-8.244-4.174-12.938 0-.301.245-.546.546-.546zm-230.872-283.072-.012-40.352c9.058-2.88 15.852-11.205 15.852-21.5v-15.03c0-4.774 3.885-8.659 8.659-8.659 2.198.128 8.056-.614 15.912 2.053 1.427.368 15.793 6.315 36.14 6.315 19.982 0 35.162-6.068 36.14-6.315 7.433-2.523 13.193-1.977 14.316-2.053 4.774 0 8.659 3.885 8.659 8.659v15.03c0 10.31 6.817 18.614 15.852 21.496l-.013 40.357c-.6 26.685-14.823 44.369-26.656 54.508-14.285 12.241-33.089 19.964-49.096 20.168-31.509-.392-74.715-28.54-75.753-74.677zm119.706 98.243h-87.906c1.947-3.543 3.197-7.524 3.587-11.761l.695-7.541c12.564 6.626 25.333 10.577 39.588 10.737h.168c12.16-.136 26.217-3.83 39.579-10.826l.703 7.63c.389 4.236 1.639 8.217 3.586 11.761zm-254.617 152.226 25.819-85.159c6.33-20.877 23.631-36.064 45.152-39.635l.594-.099c-.166 1.304-.252 2.633-.252 3.982v46.023c0 4.143 3.357 7.5 7.5 7.5s7.5-3.357 7.5-7.5v-46.023c0-8.997 7.319-16.316 16.316-16.316h216.067c8.997 0 16.317 7.319 16.317 16.316v138.513h-248.7v-57.012c0-4.143-3.357-7.5-7.5-7.5s-7.5 3.357-7.5 7.5v57.012h-15.77c-8.572 0-15.546 6.974-15.546 15.546 0 4.476.794 8.845 2.314 12.938h-16.287l-18.702-18.002c-7.562-7.278-10.368-18.039-7.322-28.084zm441.157 81.009h-461.235c-5.493 0-9.962-4.469-9.962-9.962 0-5.492 4.469-9.961 9.962-9.961h461.235c5.492 0 9.961 4.469 9.961 9.961 0 5.493-4.469 9.962-9.961 9.962z"/></g></g></g></svg>