<svg id="Capa_1" enable-background="new 0 0 512 512" height="512" viewBox="0 0 512 512" width="512" xmlns="http://www.w3.org/2000/svg"><path d="m306.572 462.369h-239.045c-6.469 0-11.713-5.244-11.713-11.713v-179.484c0-6.469 5.244-11.713 11.713-11.713h239.045z" fill="#c86d36"/><path d="m241.538 259.459h65.034v202.91h-65.034z" fill="#ac5e2e"/><path d="m110.514 259.459h33.294v202.91h-33.294z" fill="#fbc56d"/><path d="m451.126 461.944h-152.98c-13.307 0-24.094-10.788-24.094-24.095v-243.949c0-13.307 10.788-24.094 24.094-24.094h152.98c13.307 0 24.094 10.787 24.094 24.094v243.949c.001 13.307-10.786 24.095-24.094 24.095z" fill="#fea613"/><path d="m451.126 169.806h-30c13.307 0 24.094 10.787 24.094 24.094v243.949c0 13.307-10.787 24.095-24.094 24.095h30c13.307 0 24.094-10.788 24.094-24.095v-243.949c.001-13.307-10.786-24.094-24.094-24.094z" fill="#fe9901"/><path d="m351.134 23.626h48.687v28.011h-48.687z" fill="#678d98"/><path d="m241.553 234.682h-83.31c-3.904 0-7.068-3.165-7.068-7.068v-14.062c0-3.904 3.165-7.068 7.068-7.068h83.31c3.904 0 7.068 3.165 7.068 7.068v14.062c0 3.903-3.165 7.068-7.068 7.068z" fill="#c86d36"/><path d="m324.345 429.506c4.142 0 7.5-3.358 7.5-7.5v-211.523c0-4.142-3.358-7.5-7.5-7.5s-7.5 3.358-7.5 7.5v211.523c0 4.142 3.358 7.5 7.5 7.5z"/><path d="m374.637 429.506c4.142 0 7.5-3.358 7.5-7.5v-97.064c0-4.142-3.358-7.5-7.5-7.5s-7.5 3.358-7.5 7.5v97.064c0 4.142 3.358 7.5 7.5 7.5z"/><path d="m374.637 302.441c4.142 0 7.5-3.358 7.5-7.5v-84.458c0-4.142-3.358-7.5-7.5-7.5s-7.5 3.358-7.5 7.5v84.458c0 4.143 3.358 7.5 7.5 7.5z"/><path d="m424.929 429.506c4.142 0 7.5-3.358 7.5-7.5v-211.523c0-4.142-3.358-7.5-7.5-7.5s-7.5 3.358-7.5 7.5v211.523c0 4.142 3.358 7.5 7.5 7.5z"/><path d="m504.5 480.874h-58.285v-11.43h4.911c17.421 0 31.594-14.173 31.594-31.595v-243.949c0-17.421-14.173-31.594-31.594-31.594h-18.698v-112.962c0-10.31-8.388-18.698-18.698-18.698h-6.409v-7.019c0-4.142-3.358-7.5-7.5-7.5h-48.687c-4.142 0-7.5 3.358-7.5 7.5v7.019h-6.409c-10.31 0-18.698 8.388-18.698 18.698v112.962h-20.38c-17.421 0-31.595 14.173-31.595 31.594v58.06h-27.005v-9.778h2.005c8.033 0 14.568-6.535 14.568-14.568v-14.062c0-8.033-6.535-14.568-14.568-14.568h-18.515c-4.142 0-7.5 3.358-7.5 7.5s3.358 7.5 7.5 7.5h18.083v13.199h-82.447v-13.199h34.364c4.142 0 7.5-3.358 7.5-7.5s-3.358-7.5-7.5-7.5h-34.795c-8.033 0-14.568 6.535-14.568 14.568v14.062c0 8.033 6.535 14.568 14.568 14.568h1.578v9.778h-16.013-33.294-42.986c-10.594 0-19.213 8.619-19.213 19.213v179.484c0 10.594 8.619 19.213 19.213 19.213h9.368v11.004h-69.395c-4.142 0-7.5 3.358-7.5 7.5s3.358 7.5 7.5 7.5h497c4.142 0 7.5-3.358 7.5-7.5 0-4.143-3.358-7.5-7.5-7.5zm-73.285 0h-106.328v-11.43h106.329v11.43zm-121.328-11.005v11.004h-16.395v-11.004zm48.747-438.743h33.687v13.012h-33.687zm-77.082 162.774c0-9.15 7.444-16.594 16.595-16.594h76.138c4.142 0 7.5-3.358 7.5-7.5s-3.358-7.5-7.5-7.5h-40.758v-112.962c0-2.039 1.659-3.698 3.698-3.698h6.409v5.993c0 4.142 3.358 7.5 7.5 7.5h48.687c4.142 0 7.5-3.358 7.5-7.5v-5.993h6.409c2.039 0 3.698 1.659 3.698 3.698v112.962h-13.143c-4.142 0-7.5 3.358-7.5 7.5s3.358 7.5 7.5 7.5h46.841c9.15 0 16.594 7.444 16.594 16.594v243.949c0 9.15-7.444 16.595-16.594 16.595h-152.979c-9.15 0-16.595-7.444-16.595-16.595zm-10.002 260.969h-120.242v-187.91h115.244v170.89c0 6.265 1.84 12.104 4.998 17.02zm-96.729-212.687h49.727v9.778h-49.727zm-38.513 24.777v187.91h-18.294v-187.91zm-72.994 183.697v-179.484c0-2.323 1.89-4.213 4.213-4.213h35.487v187.91h-35.487c-2.322 0-4.213-1.89-4.213-4.213zm28.581 19.213h186.597v11.004h-186.597z"/></svg>