<svg height="512" viewBox="0 0 512 512" width="512" xmlns="http://www.w3.org/2000/svg"><g id="Filled_outline" data-name="Filled outline"><path d="m232 232v200a32 32 0 0 1 -32 32h-136a31.976 31.976 0 0 1 -32-32v-200a32 32 0 0 1 32-32h136a31.85 31.85 0 0 1 16.11 4.34 32.274 32.274 0 0 1 10.39 9.71 31.845 31.845 0 0 1 5.5 17.95z" fill="#d6d6d4"/><path d="m232 232v200a32 32 0 0 1 -32 32h-136a32.071 32.071 0 0 1 -29.8-20.32c62.34-51.36 130.48-127.82 181.91-239.34a32.274 32.274 0 0 1 10.39 9.71 31.845 31.845 0 0 1 5.5 17.95z" fill="#c7c7c5"/><circle cx="88" cy="456" fill="#44546c" r="32"/><path d="m184 496a16 16 0 0 1 -16-16v-8h32v8a16 16 0 0 1 -16 16z" fill="#44546c"/><rect fill="#e0e0de" height="32" rx="16" width="96" x="80" y="24"/><path d="m400 161.52v-41.52h-56v200h56l8.243-19.234a69.161 69.161 0 0 0 3.906-42.446c-7.165-31.851-12.149-64.153-12.149-96.8z" fill="#8f4d2e"/><path d="m224 232a69.184 69.184 0 0 0 -8.243 68.766l8.243 19.234h56v-104l-16-32z" fill="#8f4d2e"/><path d="m392 304h-48v-64h-64v64h-48a40 40 0 0 0 -40 40v152h240v-152a40 40 0 0 0 -40-40z" fill="#fec9a3"/><path d="m344 272.427v-32.427h-64v32.427a71.4 71.4 0 0 0 64 0z" fill="#feb784"/><path d="m384 136v56a72 72 0 1 1 -144 0v-56a64 64 0 0 1 64-64h16a63.956 63.956 0 0 1 64 64z" fill="#fec9a3"/><path d="m240 160h128v24h-128z" fill="#fec093"/><path d="m384 136v56a72.051 72.051 0 0 1 -87.29 70.37 72.029 72.029 0 0 0 52.59-69.35v-80a71.686 71.686 0 0 0 -11.07-38.38 64.011 64.011 0 0 1 45.77 61.36z" fill="#fec093"/><path d="m304 48a80 80 0 0 0 -80 80v104l25.341-30.409a63.246 63.246 0 0 0 14.659-40.491 63.246 63.246 0 0 1 37.559-57.795l34.441-15.305 2.713 6.782a94.1 94.1 0 0 0 45.287 49.218h16v-16a80 80 0 0 0 -80-80z" fill="#95573a"/><path d="m384 144h8a24 24 0 0 1 24 24 24 24 0 0 1 -24 24h-8a0 0 0 0 1 0 0v-48a0 0 0 0 1 0 0z" fill="#feb784"/><path d="m432 496v-152a40 40 0 0 0 -40-40l-5.374 8.062a89.691 89.691 0 0 1 -74.626 39.938 89.691 89.691 0 0 1 -74.626-39.938l-5.374-8.062a40 40 0 0 0 -40 40v152" fill="#e0e0de"/><path d="m432 344v152h-240v-152a40 40 0 0 1 40-40h32l48 128 48-128h32a39.978 39.978 0 0 1 40 40z" fill="#348fd9"/><path d="m432 344v152h-176.2c64.47-37.81 131.28-93.11 171.03-171.67a39.8 39.8 0 0 1 5.17 19.67z" fill="#3086cd"/><path d="m344 51.674a79.554 79.554 0 0 0 -16-3.27v43.152l8-3.556 2.713 6.782a94.017 94.017 0 0 0 4.344 9.218h.943z" fill="#82462a"/><rect fill="#ffa912" height="80" rx="40" width="336" x="144" y="88"/><path d="m400 112v16h-176v-16a87.889 87.889 0 0 1 85.24-87.95c.92-.04 1.84-.05 2.76-.05a87.9 87.9 0 0 1 88 88z" fill="#ffb531"/><path d="m400 112v16h-41.87c-12.37-52.57-26.9-83.17-48.89-103.95.92-.04 1.84-.05 2.76-.05a88 88 0 0 1 88 88z" fill="#ffa912"/><path d="m400 112v16h-176v-16a88.826 88.826 0 0 1 1.45-16h173.1a88.826 88.826 0 0 1 1.45 16z" fill="#f98500"/><path d="m400 112v16h-48c-2.14-12.01-4.32-22.6-6.63-32h53.18a88.826 88.826 0 0 1 1.45 16z" fill="#e67007"/><path d="m144 232h16v200h-16z"/><path d="m312 224a24.027 24.027 0 0 0 24-24h-16a8 8 0 0 1 -16 0h-16a24.027 24.027 0 0 0 24 24z"/><path d="m385.111 404.067c11.236 19.032 8.328 44.263-7.236 62.787a8 8 0 0 0 -1.875 5.146v24h16v-21.174c18.256-23.485 21.1-54.829 6.889-78.893z"/><path d="m238.889 404.067-13.778-8.134c-14.211 24.067-11.367 55.408 6.889 78.894v21.173h16v-24a8 8 0 0 0 -1.875-5.146c-15.564-18.524-18.472-43.754-7.236-62.787z"/><path d="m440 80h-37.491a96 96 0 0 0 -181.018 0h-37.491a47.865 47.865 0 0 0 -24 6.414v-22.414a24 24 0 0 0 0-48h-64a24 24 0 0 0 0 48v128h-32a40.045 40.045 0 0 0 -40 40v200a39.8 39.8 0 0 0 26.4 37.639 39.992 39.992 0 0 0 74.25 2.361h35.35a24.028 24.028 0 0 0 24 24h16v-152a32.032 32.032 0 0 1 32-32h26.456l45.544 121.451v62.549h16v-62.549l45.544-121.451h26.456a32.036 32.036 0 0 1 32 32v152h16v-152a48.016 48.016 0 0 0 -23.84-41.45 77.174 77.174 0 0 0 3.8-46.006 479.43 479.43 0 0 1 -10.239-61.874 33.062 33.062 0 0 0 4.9-4.054 31.826 31.826 0 0 0 8.368-14.616h17.011a48 48 0 0 0 0-96zm-208 32a75.11 75.11 0 0 1 .433-8h159.134a75.11 75.11 0 0 1 .433 8v8h-160zm80-80a80.14 80.14 0 0 1 76.317 56h-152.634a80.14 80.14 0 0 1 76.317-56zm64 160a64.04 64.04 0 0 1 -124.872 19.935c4.5-5.339 9.113-10.879 12.643-17.591a71.016 71.016 0 0 0 6.629-18.344h105.6zm-126.39-5.1c-2.817 5.357-6.831 10.119-11.081 15.161-.816.967-4 4.787-6.529 7.833v-33.894h21.914a55.665 55.665 0 0 1 -4.304 10.9zm-33.61 8.466a39.854 39.854 0 0 0 -16-3.366h-40v-22.475a48.084 48.084 0 0 0 24 6.475h32zm-128-155.366a8.009 8.009 0 0 1 8-8h64a8 8 0 0 1 0 16h-64a8.009 8.009 0 0 1 -8-8zm24 24h32v37.459a48.028 48.028 0 0 0 0 53.083v37.458h-32zm-24 416a24 24 0 1 1 24-24 24.028 24.028 0 0 1 -24 24zm88-8h8v8a8.009 8.009 0 0 1 -8-8zm8-240v224h-56a39.788 39.788 0 0 0 -8.022-24h.022v-200h-16v187.35a39.972 39.972 0 0 0 -24-2.545v-184.805h-16v192.022a40.022 40.022 0 0 0 -15.585 26.263 23.919 23.919 0 0 1 -8.415-18.285v-200a24.028 24.028 0 0 1 24-24h136a23.952 23.952 0 0 1 16 6.156v15.255a77.322 77.322 0 0 0 -8.169 73.132 47.727 47.727 0 0 0 -7.831 5.707v-76.25zm38.807 64.9a61.268 61.268 0 0 1 7.5-59.966l6.732-8.063 2.462-2.965a79.692 79.692 0 0 0 32.499 35.354v34.74h-40a47.833 47.833 0 0 0 -9.193.9zm70.023 61.2a97.507 97.507 0 0 0 38.34 0l-19.17 51.116zm45.226-18.363a81.706 81.706 0 0 1 -52.112 0l-10.4-27.737h4.456a8 8 0 0 0 8-8v-35.7a79.7 79.7 0 0 0 48 0v35.7a8 8 0 0 0 8 8h4.456zm53.944-43.737h-40v-34.743a79.4 79.4 0 0 0 39.6-61.257h.4c.723 0 1.439-.031 2.151-.078a502.489 502.489 0 0 0 10.2 60.139 61.271 61.271 0 0 1 -3.16 36.832 48.016 48.016 0 0 0 -9.191-.893zm11.3-116.7a15.634 15.634 0 0 1 -4.574 3.249c-.23.074-.457.16-.68.255a15.255 15.255 0 0 1 -6.046 1.196v-8h13.831a16.137 16.137 0 0 1 -2.531 3.3zm59.391-28.671a32.1 32.1 0 0 1 -22.691 9.371h-256a32.228 32.228 0 0 1 -25.628-12.837 32 32 0 0 1 0-38.326l.067-.09a29.558 29.558 0 0 1 2.867-3.379 32.1 32.1 0 0 1 22.694-9.368h33.341c-.877 5.2-1.341 32-1.341 32a8 8 0 0 0 8 8h176a8 8 0 0 0 8-8s-.464-26.795-1.341-32h33.341a32.051 32.051 0 0 1 22.694 54.632z"/><path d="m272 440h16v16h-16z"/></g></svg>