<svg height="480pt" viewBox="0 -24 480 480" width="480pt" xmlns="http://www.w3.org/2000/svg"><path d="m408 184h-96v192h32c0-26.507812 21.492188-48 48-48s48 21.492188 48 48c17.671875 0 32-14.328125 32-32v-96c0-35.347656-28.652344-64-64-64zm0 0" fill="#88d3d1"/><path d="m368 312c-17.671875 0-32-14.328125-32-32v-96h-24v192h32c0-26.507812 21.492188-48 48-48s48 21.492188 48 48c17.671875 0 32-14.328125 32-32v-32zm0 0" fill="#33b1a2"/><path d="m392 72h-352c-17.671875 0-32 14.328125-32 32v240c0 17.671875 14.328125 32 32 32h32c0-26.507812 21.492188-48 48-48s48 21.492188 48 48h144v-224h112v-48c0-17.671875-14.328125-32-32-32zm0 0" fill="#c5dddc"/><path d="m328 136h96v16h-112c0-8.835938 7.164062-16 16-16zm0 0" fill="#88d3d1"/><path d="m248 296c-106.039062 0-192-85.960938-192-192v-32h-16c-17.671875 0-32 14.328125-32 32v240c0 17.671875 14.328125 32 32 32h32c0-26.507812 21.492188-48 48-48s48 21.492188 48 48h144v-80zm0 0" fill="#88d3d1"/><path d="m360 120h16c4.417969 0 8 3.582031 8 8v24h-32v-24c0-4.417969 3.582031-8 8-8zm0 0" fill="#ee1442"/><path d="m352 136h32v16h-32zm0 0" fill="#ce1743"/><path d="m280 8c17.671875 0 32 14.328125 32 32v32h-64v-32c0-17.671875 14.328125-32 32-32zm0 0" fill="#ee1442"/><path d="m310 60c-25.40625 0-46-20.59375-46-46 0-.542969.0625-1.070312.078125-1.601562-9.914063 5.65625-16.046875 16.1875-16.078125 27.601562v32h64v-12.105469c-.664062.035157-1.328125.105469-2 .105469zm0 0" fill="#ce1743"/><path d="m360 216h48c17.671875 0 32 14.328125 32 32v32h-80zm0 0" fill="#c5dddc"/><path d="m408 264c-17.671875 0-32-14.328125-32-32v-16h-16v64h80v-16zm0 0" fill="#33b1a2"/><path d="m440 376c0 26.507812-21.492188 48-48 48s-48-21.492188-48-48 21.492188-48 48-48 48 21.492188 48 48zm0 0" fill="#ee1442"/><path d="m416 400c-16.300781.019531-31.492188-8.246094-40.335938-21.9375-8.839843-13.695312-10.117187-30.941406-3.390624-45.789062-19.496094 8.757812-30.851563 29.355468-27.855469 50.515624 3 21.164063 19.628906 37.792969 40.792969 40.792969 21.160156 2.996094 41.757812-8.359375 50.515624-27.855469-6.195312 2.8125-12.921874 4.269532-19.726562 4.273438zm0 0" fill="#ce1743"/><path d="m168 376c0 26.507812-21.492188 48-48 48s-48-21.492188-48-48 21.492188-48 48-48 48 21.492188 48 48zm0 0" fill="#ee1442"/><path d="m144 400c-16.300781.019531-31.492188-8.246094-40.335938-21.9375-8.839843-13.695312-10.117187-30.941406-3.390624-45.789062-19.496094 8.757812-30.851563 29.355468-27.855469 50.515624 3 21.164063 19.628906 37.792969 40.792969 40.792969 21.160156 2.996094 41.757812-8.359375 50.515624-27.855469-6.195312 2.8125-12.921874 4.269532-19.726562 4.273438zm0 0" fill="#ce1743"/><path d="m408 376c0 8.835938-7.164062 16-16 16s-16-7.164062-16-16 7.164062-16 16-16 16 7.164062 16 16zm0 0" fill="#297c6e"/><path d="m136 376c0 8.835938-7.164062 16-16 16s-16-7.164062-16-16 7.164062-16 16-16 16 7.164062 16 16zm0 0" fill="#297c6e"/><path d="m224 176h-32v-32c0-8.835938-7.164062-16-16-16h-32c-8.835938 0-16 7.164062-16 16v32h-32c-8.835938 0-16 7.164062-16 16v32c0 8.835938 7.164062 16 16 16h32v32c0 8.835938 7.164062 16 16 16h32c8.835938 0 16-7.164062 16-16v-32h32c8.835938 0 16-7.164062 16-16v-32c0-8.835938-7.164062-16-16-16zm0 0" fill="#ee1442"/><path d="m256 280h56v48h-72v-32c0-8.835938 7.164062-16 16-16zm0 0" fill="#ee1442"/><path d="m48 104h16c4.417969 0 8 3.582031 8 8v16c0 4.417969-3.582031 8-8 8h-16c-4.417969 0-8-3.582031-8-8v-16c0-4.417969 3.582031-8 8-8zm0 0" fill="#ee1442"/><path d="m392 328c26.507812 0 48 21.492188 48 48 17.671875 0 32-14.328125 32-32v-16zm0 0" fill="#2e9989"/><path d="m168 376h176c0-26.507812 21.492188-48 48-48h-272c26.507812 0 48 21.492188 48 48zm0 0" fill="#2e9989"/><path d="m8 344c0 17.671875 14.328125 32 32 32h32c0-26.507812 21.492188-48 48-48h-112zm0 0" fill="#2e9989"/><path d="m440 376c14.558594-.027344 27.253906-9.898438 30.871094-24h-37.34375c4.238281 7.289062 6.472656 15.570312 6.472656 24zm0 0" fill="#297c6e"/><path d="m168 376h176c0-8.429688 2.234375-16.710938 6.472656-24h-188.945312c4.238281 7.289062 6.472656 15.570312 6.472656 24zm0 0" fill="#297c6e"/><path d="m40 328h-32v16c0 17.671875 14.328125 32 32 32h32c0-8.429688 2.234375-16.710938 6.472656-24h-14.472656c-13.253906 0-24-10.746094-24-24zm0 0" fill="#297c6e"/><g fill="#ce1743"><path d="m128 272c0 8.835938 7.164062 16 16 16h32c3.148438 0 6.230469-.929688 8.847656-2.679688-20.605468-7.179687-39.832031-17.828124-56.847656-31.488281zm0 0"/><path d="m96 240h16.480469c-12.789063-12.753906-23.722657-27.242188-32.480469-43.039062v27.039062c0 8.835938 7.164062 16 16 16zm0 0"/><path d="m240 295.800781c-.003906.066407-.003906.132813 0 .199219v32h72v-32h-64c-2.679688 0-5.328125-.097656-8-.199219zm0 0"/><path d="m40 112v16c0 4.417969 3.582031 8 8 8h10.703125c-1.785156-10.574219-2.691406-21.277344-2.703125-32h-8c-4.417969 0-8 3.582031-8 8zm0 0"/></g><path d="m408 176h-88v-16h104c4.417969 0 8-3.582031 8-8v-48c-.027344-22.082031-17.917969-39.972656-40-40h-72v-24c0-22.089844-17.910156-40-40-40s-40 17.910156-40 40v24h-200c-22.082031.027344-39.9726562 17.917969-40 40v240c.0273438 22.082031 17.917969 39.972656 40 40h24.640625c3.953125 27.535156 27.542969 47.976562 55.359375 47.976562s51.40625-20.441406 55.359375-47.976562h161.28125c3.972656 27.683594 27.78125 48.179688 55.746094 47.988281 27.96875-.191406 51.496093-21.003906 55.09375-48.742187 18.851562-3.585938 32.496093-20.054688 32.519531-39.246094v-96c-.042969-39.746094-32.253906-71.957031-72-72zm-104 144h-56v-24c0-4.417969 3.582031-8 8-8h48zm56-176v-16h16v16zm-104-104c0-13.253906 10.746094-24 24-24s24 10.746094 24 24v24h-48zm-136 376c-22.089844 0-40-17.910156-40-40s17.910156-40 40-40 40 17.910156 40 40c-.027344 22.082031-17.917969 39.972656-40 40zm55.359375-48c-3.953125-27.535156-27.542969-47.976562-55.359375-47.976562s-51.40625 20.441406-55.359375 47.976562h-24.640625c-13.253906 0-24-10.746094-24-24v-8h40.113281c4.417969 0 8-3.582031 8-8s-3.582031-8-8-8h-40.113281v-216c0-13.253906 10.746094-24 24-24h352c13.253906 0 24 10.746094 24 24v40h-24v-16c0-8.835938-7.164062-16-16-16h-16c-8.835938 0-16 7.164062-16 16v16h-32c-4.417969 0-8 3.582031-8 8v120h-48c-13.253906 0-24 10.746094-24 24v24h-48.113281c-4.417969 0-8 3.582031-8 8s3.582031 8 8 8h120.113281v32zm216.640625 48c-22.089844 0-40-17.910156-40-40s17.910156-40 40-40 40 17.910156 40 40c-.027344 22.082031-17.917969 39.972656-40 40zm55.199219-49.214844c-4.480469-27.253906-28.183594-47.15625-55.800781-46.851562-27.617188.304687-50.878907 20.722656-54.757813 48.066406h-16.640625v-32h8.113281c4.417969 0 8-3.582031 8-8s-3.582031-8-8-8h-8.113281v-128h88c30.914062.035156 55.964844 25.085938 56 56v72h-8c-4.417969 0-8 3.582031-8 8s3.582031 8 8 8h8v8c-.03125 10.445312-6.832031 19.664062-16.800781 22.785156zm0 0"/><path d="m448 248c-.027344-22.082031-17.917969-39.972656-40-40h-48c-4.417969 0-8 3.582031-8 8v64c0 4.417969 3.582031 8 8 8h80c4.417969 0 8-3.582031 8-8zm-16 24h-64v-48h40c13.253906 0 24 10.746094 24 24zm0 0"/><path d="m392 352c-13.253906 0-24 10.746094-24 24s10.746094 24 24 24 24-10.746094 24-24-10.746094-24-24-24zm0 32c-4.417969 0-8-3.582031-8-8s3.582031-8 8-8 8 3.582031 8 8-3.582031 8-8 8zm0 0"/><path d="m120 352c-13.253906 0-24 10.746094-24 24s10.746094 24 24 24 24-10.746094 24-24-10.746094-24-24-24zm0 32c-4.417969 0-8-3.582031-8-8s3.582031-8 8-8 8 3.582031 8 8-3.582031 8-8 8zm0 0"/><path d="m200 272v-24h24c13.253906 0 24-10.746094 24-24v-32c0-13.253906-10.746094-24-24-24h-24v-24c0-13.253906-10.746094-24-24-24h-32c-13.253906 0-24 10.746094-24 24v24h-24c-13.253906 0-24 10.746094-24 24v32c0 13.253906 10.746094 24 24 24h24v24c0 13.253906 10.746094 24 24 24h32c13.253906 0 24-10.746094 24-24zm-64 0v-32c0-4.417969-3.582031-8-8-8h-32c-4.417969 0-8-3.582031-8-8v-32c0-4.417969 3.582031-8 8-8h32c4.417969 0 8-3.582031 8-8v-32c0-4.417969 3.582031-8 8-8h32c4.417969 0 8 3.582031 8 8v32c0 4.417969 3.582031 8 8 8h32c4.417969 0 8 3.582031 8 8v32c0 4.417969-3.582031 8-8 8h-32c-4.417969 0-8 3.582031-8 8v32c0 4.417969-3.582031 8-8 8h-32c-4.417969 0-8-3.582031-8-8zm0 0"/><path d="m80 128v-16c0-8.835938-7.164062-16-16-16h-16c-8.835938 0-16 7.164062-16 16v16c0 8.835938 7.164062 16 16 16h16c8.835938 0 16-7.164062 16-16zm-32 0v-16h16v16zm0 0"/></svg>