<svg id="Filled" height="512" viewBox="0 0 512 512" width="512" xmlns="http://www.w3.org/2000/svg"><g><g><g><path d="m64 336v-121.07a10 10 0 0 1 6.489-9.363l57.511-21.567h64l57.511 21.567a10 10 0 0 1 6.489 9.363v193.07z" fill="#25b1fa"/><path d="m120 56v68.676a20 20 0 0 0 9.71 17.15l12.225 7.335-13.935 34.839 32 32 32-32-13.935-34.839 12.225-7.335a20 20 0 0 0 9.71-17.15v-68.676z" fill="#ffd4cf"/></g><g><path d="m360 24a72 72 0 0 1 72 72v128a0 0 0 0 1 0 0h-144a0 0 0 0 1 0 0v-128a72 72 0 0 1 72-72z" fill="#fdbf67"/><path d="m272 392v-160l56-32h64l56 32v160z" fill="#25b1fa"/><path d="m392.956 143.4 7.044-63.4-61.448 12.29a20 20 0 0 0 -15.876 22.44l4.152 29.069a20.007 20.007 0 0 0 7.8 13.172l8.142 6.106-14.77 36.923 32 40 32-40-14.769-36.923 7.847-5.885a20 20 0 0 0 7.878-13.792z" fill="#ffd4cf"/></g><g><g><path d="m176 496 16-120 40-16h48l40 16 16 120z" fill="#25b1fa"/><path d="m216 248v58.338a10 10 0 0 0 4.855 8.575l21.812 13.087h-2.667l-8 32 24 32 24-32-8-32h-2.667l21.812-13.087a10 10 0 0 0 4.855-8.575v-50.338z" fill="#ffd4cf"/></g><path d="m216 248s8 32 80 32v-36a20 20 0 0 0 -20-20h-40a20 20 0 0 0 -20 20z" fill="#fdbf67"/></g><g fill="#ffd4cf"><path d="m336 496v-32.649l-13.586-44.919a70 70 0 0 1 11.519-62.945l35-45.5a50 50 0 0 1 58.2-15.939l4.867 1.952v-120.089a39.911 39.911 0 0 1 40-39.911l16 184-72 112v64z"/><path d="m176 496v-32.649l13.586-44.919a70 70 0 0 0 -11.519-62.945l-35-45.5a50 50 0 0 0 -58.2-15.939l-4.867 1.952v-120.089a39.911 39.911 0 0 0 -40-39.911l-16 184 72 112v64z"/></g><path d="m137.2 24h70.8a0 0 0 0 1 0 0v16a40 40 0 0 1 -40 40h-64a0 0 0 0 1 0 0v-22.8a33.2 33.2 0 0 1 33.2-33.2z" fill="#fdbf67"/></g><path d="m152 240h16v16h-16z"/><path d="m280 424h32v16h-32z"/><path d="m495.97 319.307-16-184a8 8 0 0 0 -7.952-7.307h-.11a47.553 47.553 0 0 0 -31.908 12.172v-44.172a79.863 79.863 0 0 0 -20.373-53.336l-11.921 10.671a63.887 63.887 0 0 1 16.294 42.665v113.072l-25.608-14.634-11.456-28.638 2.941-2.206a28.107 28.107 0 0 0 11.03-19.308l7.044-63.4a8 8 0 0 0 -9.52-8.728l-61.448 12.29a28.009 28.009 0 0 0 -22.227 31.416l4.153 29.069a27.818 27.818 0 0 0 10.919 18.441l3.236 2.427-11.456 28.64-25.608 14.631v-113.072a64.011 64.011 0 0 1 99.55-53.228l8.9-13.295a80.01 80.01 0 0 0 -124.45 66.523v120.285a28.224 28.224 0 0 0 -4-.285h-12v-1.07a18.084 18.084 0 0 0 -11.68-16.854l-54.2-20.327-10.093-25.233 6.383-3.83a28.143 28.143 0 0 0 13.59-24.01v-58.17a47.721 47.721 0 0 0 8-26.506v-16a8 8 0 0 0 -8-8h-70.8a41.244 41.244 0 0 0 -41.2 41.2v22.8a8 8 0 0 0 8 8h8v36.676a28.143 28.143 0 0 0 13.594 24.01l6.383 3.83-10.093 25.233-33.884 12.707v-14.545a47.91 47.91 0 0 0 -48.018-47.911 8 8 0 0 0 -7.952 7.307l-16 184a8 8 0 0 0 1.241 5.019l36 56 13.458-8.652-34.522-53.7 15.058-173.169a31.943 31.943 0 0 1 24.735 31.106v120.089a7.994 7.994 0 0 0 .845 3.578l40 80 14.31-7.156-36.047-72.094a42.179 42.179 0 0 1 45.621 14.54l35 45.5a62.127 62.127 0 0 1 10.2 55.751l-13.586 44.919a7.969 7.969 0 0 0 -.343 2.316v32.646h16v-31.465l13.243-43.787a78.024 78.024 0 0 0 1.6-38.869l30.436-12.174 20.321 27.095a8 8 0 0 0 12.8 0l20.321-27.1 30.436 12.174a78.012 78.012 0 0 0 1.6 38.869l13.243 43.792v31.465h16v-32.649a7.969 7.969 0 0 0 -.343-2.316l-13.586-44.919a62.127 62.127 0 0 1 10.2-55.751l35-45.5a42.179 42.179 0 0 1 45.621-14.541l-36.047 72.094 14.31 7.156 40-80a7.994 7.994 0 0 0 .845-3.574v-120.089a31.943 31.943 0 0 1 24.735-31.106l15.058 173.167-70.522 109.7a8 8 0 0 0 -1.271 4.328v64h16v-61.65l70.729-110.024a8 8 0 0 0 1.241-5.019zm-135.97-140.343a28.1 28.1 0 0 0 13.577-3.48l9.264 23.159-22.841 28.551-22.841-28.551 9.264-23.16a28.086 28.086 0 0 0 13.577 3.481zm-19.879-78.83 50.72-10.144-5.841 52.527a12.042 12.042 0 0 1 -4.726 8.274l-13.074 9.809a12.06 12.06 0 0 1 -14.4 0l-13.373-10.029a11.927 11.927 0 0 1 -4.679-7.9l-4.148-29.071a12 12 0 0 1 9.521-13.466zm-83.092 225.919a2 2 0 0 1 -2.058 0l-30-18a2.009 2.009 0 0 1 -.971-1.715v-36.084l.294.216c14.616 10.63 36.022 16.471 63.706 17.4v18.469a2.009 2.009 0 0 1 -.971 1.715zm30.971-82.053v27.857c-50.746-1.86-62.182-21.28-64-25.275v-2.582a12.013 12.013 0 0 1 12-12h40a12.013 12.013 0 0 1 12 12zm-128-79.315a27.961 27.961 0 0 0 14.124-3.833l8.489 21.221-22.613 22.614-22.613-22.614 8.489-21.221a27.961 27.961 0 0 0 14.124 3.833zm-48-107.485a25.225 25.225 0 0 1 25.2-25.2h62.8v8a32.036 32.036 0 0 1 -32 32h-56zm16 67.479v-36.679h40a47.7 47.7 0 0 0 24-6.443v43.119a12.059 12.059 0 0 1 -5.826 10.29l-20 12a11.978 11.978 0 0 1 -12.348 0l-20-12a12.059 12.059 0 0 1 -5.826-10.29zm56.408 225.931-35-45.5a58.254 58.254 0 0 0 -61.408-20.537v-77.029l37.986-14.244 28.357 28.358a8 8 0 0 0 11.314 0l28.357-28.358 52.686 19.758a2.008 2.008 0 0 1 1.3 1.872v1.07h-12a28.032 28.032 0 0 0 -28 28v62.338a18.091 18.091 0 0 0 8.739 15.435l14.41 8.646-5.918 23.673-31.323 12.529a77.7 77.7 0 0 0 -9.5-16.011zm71.592 28.057-15.315-20.421 4.805-19.222 1.249.749a17.971 17.971 0 0 0 18.522 0l1.249-.749 4.805 19.222zm106.589-73.554-35 45.5a77.732 77.732 0 0 0 -9.5 16.012l-31.323-12.529-5.918-23.673 14.41-8.646a18.091 18.091 0 0 0 8.742-15.439v-62.338a27.862 27.862 0 0 0 -6.187-17.536l28.215-16.123 27.725 34.659a8 8 0 0 0 12.494 0l27.725-34.657 30.028 17.157v57.072a58.257 58.257 0 0 0 -61.411 20.541z"/><path d="m77.015 387.674-13.459 8.652 24.444 38.024v61.65h16v-64a8 8 0 0 0 -1.271-4.326z"/></g></svg>