<?xml version="1.0" encoding="iso-8859-1"?>
<!-- Generator: Adobe Illustrator 19.0.0, SVG Export Plug-In . SVG Version: 6.00 Build 0)  -->
<svg version="1.1" id="Layer_1" xmlns="http://www.w3.org/2000/svg" xmlns:xlink="http://www.w3.org/1999/xlink" x="0px" y="0px" viewBox="0 0 113.37 113.37" style="enable-background:new 0 0 113.37 113.37;" xml:space="preserve">
	<path style="fill:#4b006e;" d="M50.254,96.103c-0.033,0-0.066-0.001-0.099-0.002c-1.375-0.049-2.5-1.11-2.627-2.48l-4.572-49.048
	l-5.007,38.199c-0.176,1.343-1.308,2.355-2.661,2.382c-1.359,0.021-2.523-0.942-2.751-2.277L26.563,47.82l-1.637,9.86
	c-0.22,1.321-1.362,2.29-2.7,2.29H2.737C1.225,59.97,0,58.744,0,57.231c0-1.51,1.225-2.736,2.737-2.736h17.167l3.922-23.623
	c0.219-1.32,1.357-2.287,2.695-2.29c0.001,0,0.004,0,0.005,0c1.334,0,2.474,0.962,2.699,2.277l5.656,33.189l5.819-44.4
	c0.181-1.382,1.379-2.41,2.765-2.381c1.394,0.026,2.545,1.096,2.674,2.481l4.875,52.298L57.723,31.6
	c0.222-1.336,1.398-2.316,2.739-2.289c1.354,0.019,2.49,1.024,2.674,2.365l4.688,34.157l5.257-18.475
	c0.346-1.213,1.477-2.035,2.732-1.985c1.259,0.044,2.325,0.944,2.582,2.177l1.669,8.041h30.569c1.513,0,2.737,1.224,2.737,2.736
	s-1.225,2.737-2.737,2.737H77.837c-1.099,0-2.07-0.654-2.501-1.626l-5.817,20.441c-0.355,1.246-1.536,2.071-2.825,1.982
	c-1.293-0.093-2.344-1.076-2.52-2.358l-4.006-29.188l-7.215,43.497C52.733,95.138,51.586,96.103,50.254,96.103z" />
	<g></g>
	<g></g>
	<g></g>
	<g></g>
	<g></g>
	<g></g>
	<g></g>
	<g></g>
	<g></g>
	<g></g>
	<g></g>
	<g></g>
	<g></g>
	<g></g>
	<g></g>
</svg>
